<?xml version="1.0" encoding="utf-8"?>
<svg version="1.1" xmlns="http://www.w3.org/2000/svg" xmlns:xlink="http://www.w3.org/1999/xlink" x="0px" y="0px" viewBox="0 0 126 124.4" style="enable-background:new 0 0 126 124.4;" width="126" height="124.4" xml:space="preserve">
	<style type="text/css">
		.st0{fill:none;stroke:#c92f2f;stroke-linecap:round;stroke-linejoin:round;stroke-miterlimit:10;}
	</style>
	<path class="st0" d="M75.5,96c17.6-12.6,47.9-37.1,49.7-57.7c0-0.3,0.2-1.8,0.2-2.2c0-0.5,0.1-1.7,0.1-1.8
		c0-18.7-14.2-33.9-31.8-33.9C79,0.5,66.6,11.1,63,25.6C59.4,11.1,47,0.5,32.3,0.5C14.7,0.5,0.5,15.7,0.5,34.4c0,0,0,1.1,0,1.5
		c0,0.4,0.2,2.1,0.2,2.4c1.9,21.2,33.8,46.5,51.2,58.7"/>
	<path class="st0" d="M97.3,30.9c0,2.2-1.8,4-4,4c-2.2,0-4-1.8-4-4c0-2.2,1.8-4,4-4C95.5,26.9,97.3,28.6,97.3,30.9z"/>
	<path class="st0" d="M99.9,22c2.7,2,4.4,5.2,4.4,8.9"/>
	<path class="st0" d="M93.3,19.8c0.8,0,1.5,0.1,2.2,0.2"/>
	<path class="st0" d="M111.4,28.9c0.1,0.7,0.1,1.3,0.1,2"/>
	<path class="st0" d="M93.3,12.6c7.1,0,13.3,4.1,16.3,10.1"/>
	<path class="st0" d="M28,30.9c0,2.2,1.8,4,4,4c2.2,0,4-1.8,4-4c0-2.2-1.8-4-4-4C29.8,26.9,28,28.6,28,30.9z"/>
	<path class="st0" d="M25.4,22c-2.7,2-4.4,5.2-4.4,8.9"/>
	<path class="st0" d="M32,19.8c-0.8,0-1.5,0.1-2.2,0.2"/>
	<path class="st0" d="M13.8,28.9c-0.1,0.7-0.1,1.3-0.1,2"/>
	<path class="st0" d="M32,12.6c-7.1,0-13.3,4.1-16.3,10.1"/>
	<rect x="51.5" y="42.2" class="st0" width="23.7" height="23.7"/>
	<line class="st0" x1="51.5" y1="59.1" x2="37.9" y2="59.1"/>
	<line class="st0" x1="51.5" y1="50.4" x2="41.9" y2="50.4"/>
	<line class="st0" x1="84.1" y1="59.1" x2="75.1" y2="59.1"/>
	<line class="st0" x1="75.1" y1="50.4" x2="87.4" y2="50.4"/>
	<line class="st0" x1="67.4" y1="65.9" x2="67.4" y2="75.9"/>
	<line class="st0" x1="58.6" y1="104.6" x2="58.6" y2="109.4"/>
	<polyline class="st0" points="58.6,65.9 58.6,75.9 58.6,98.2"/>
	<line class="st0" x1="67.4" y1="33.6" x2="67.4" y2="42.2"/>
	<line class="st0" x1="58.6" y1="33.6" x2="58.6" y2="42.2"/>
	<circle class="st0" cx="93.3" cy="50.4" r="5.9"/>
	<circle class="st0" cx="32" cy="59.1" r="5.9"/>
	<line class="st0" x1="68.4" y1="121.3" x2="68.4" y2="123.9"/>
	<polyline class="st0" points="93.3,56.2 93.3,65.9 68.4,90.8 68.4,114.7"/>
	<line class="st0" x1="67.4" y1="81.5" x2="67.4" y2="81.5"/>
	<line class="st0" x1="79.8" y1="69.5" x2="79.8" y2="69.5"/>
	<line class="st0" x1="46.2" y1="69.5" x2="46.2" y2="69.5"/>
	<line class="st0" x1="32" y1="34.9" x2="32" y2="53.3"/>
	<line class="st0" x1="93.3" y1="34.9" x2="93.3" y2="44.5"/>
	<path class="st0" d="M9.9,109.9c0-2,1.6-3.6,3.6-3.6s3.6,1.6,3.6,3.6c0,2-1.6,3.6-3.6,3.6S9.9,111.9,9.9,109.9z"/>
	<path class="st0" d="M27.1,109.9c0-2,1.6-3.6,3.6-3.6c2,0,3.6,1.6,3.6,3.6c0,2-1.6,3.6-3.6,3.6C28.7,113.5,27.1,111.9,27.1,109.9z"/>
	<path class="st0" d="M18.5,95.1c0-2,1.6-3.6,3.6-3.6c2,0,3.6,1.6,3.6,3.6c0,2-1.6,3.6-3.6,3.6C20.1,98.7,18.5,97.1,18.5,95.1z"/>
	<line class="st0" x1="116.5" y1="103.6" x2="115.2" y2="105"/>
	<line class="st0" x1="111.1" y1="109" x2="109.8" y2="110.4"/>
	<line class="st0" x1="116.5" y1="110.4" x2="115.2" y2="109"/>
	<line class="st0" x1="111.1" y1="105" x2="109.8" y2="103.6"/>
	<line class="st0" x1="116.5" y1="88.1" x2="115.2" y2="89.4"/>
	<line class="st0" x1="111.1" y1="93.5" x2="109.8" y2="94.8"/>
	<line class="st0" x1="116.5" y1="94.8" x2="115.2" y2="93.5"/>
	<line class="st0" x1="111.1" y1="89.4" x2="109.8" y2="88.1"/>
	<line class="st0" x1="100.2" y1="103.6" x2="98.9" y2="105"/>
	<line class="st0" x1="94.8" y1="109" x2="93.4" y2="110.4"/>
	<line class="st0" x1="100.2" y1="110.4" x2="98.9" y2="109"/>
	<line class="st0" x1="94.8" y1="105" x2="93.4" y2="103.6"/>
</svg>