<?xml version="1.0" encoding="utf-8"?>
<svg version="1.1" xmlns="http://www.w3.org/2000/svg" xmlns:xlink="http://www.w3.org/1999/xlink" x="0px" y="0px" viewBox="0 0 126 120.2" width="126" height="120.2" style="enable-background:new 0 0 126 120.2;" xml:space="preserve">
	<style type="text/css">
		.st0{fill:none;stroke:#c92f2f;stroke-linecap:round;stroke-linejoin:round;stroke-miterlimit:10;}
	</style>
	<path class="st0" d="M27,0.5h92.1c3.5,0,6.4,2.9,6.4,6.4v75.6c0,3.5-2.9,6.4-6.4,6.4H51.8h22.4H6.9c-3.5,0-6.4-2.9-6.4-6.4V6.9c0-3.5,2.9-6.4,6.4-6.4h11.9"/>
	<line class="st0" x1="118.1" y1="69.5" x2="125.5" y2="69.5"/>
	<line class="st0" x1="0.5" y1="69.5" x2="64.7" y2="69.5"/>
	<line class="st0" x1="58" y1="7.4" x2="68" y2="7.4"/>
	<path class="st0" d="M73.8,89L73.8,89c0,13,9.5,25.2,23.6,29.3l0,0c0.9,0.3,0.7,1.4-0.3,1.4H61.5h3H28.9c-0.9,0-1.2-1.2-0.3-1.4l0,0c14.1-4.1,23.6-16.3,23.6-29.3l0,0"/>
	<line class="st0" x1="40.4" y1="112.2" x2="57.1" y2="112.2"/>
	<line class="st0" x1="9.1" y1="22.1" x2="9.1" y2="51.1"/>
	<line class="st0" x1="9.1" y1="58.1" x2="9.1" y2="69.5"/>
	<path class="st0" d="M113.4,74.4H75.2c-2.6,0-4.6-2.1-4.6-4.6v-25c0-2.6,2.1-4.6,4.6-4.6h38.3c2.6,0,4.6,2.1,4.6,4.6v25C118.1,72.3,116,74.4,113.4,74.4z"/>
	<path class="st0" d="M77.4,20.8c-1.5,2.7-2.3,5.9-2.3,9.2l0,10.2"/>
	<path class="st0" d="M113.6,40.1l0-10.2c0-10.6-8.6-19.2-19.2-19.2c-4,0-7.7,1.2-10.8,3.3"/>
	<path class="st0" d="M107.6,40.1V30c0-7.3-6-13.3-13.3-13.3C87,16.7,81,22.6,81,30v10.2"/>
	<line class="st0" x1="107.6" y1="50.5" x2="118.1" y2="50.5"/>
	<line class="st0" x1="107.6" y1="57.3" x2="118.1" y2="57.3"/>
	<line class="st0" x1="107.6" y1="64" x2="118.1" y2="64"/>
	<line class="st0" x1="70.5" y1="50.5" x2="81" y2="50.5"/>
	<line class="st0" x1="70.5" y1="57.3" x2="81" y2="57.3"/>
	<line class="st0" x1="70.5" y1="64" x2="81" y2="64"/>
	<line class="st0" x1="94.3" y1="64" x2="94.3" y2="50.5"/>
	<circle class="st0" cx="63" cy="79" r="2.5"/>
	<path class="st0" d="M55.5,35.9c0.4,1.4,0.6,2.8,0.6,4.3c0,8.6-7,15.6-15.6,15.6c-8.6,0-15.6-7-15.6-15.6c0-8.6,7-15.6,15.6-15.6c3.9,0,7.5,1.4,10.2,3.8"/>
	<polyline class="st0" points="34.3,38.4 40.6,44.8 58.4,27"/>
</svg>