<?xml version="1.0" encoding="utf-8"?>

<svg version="1.1" xmlns="http://www.w3.org/2000/svg" xmlns:xlink="http://www.w3.org/1999/xlink" x="0px" y="0px" viewBox="0 0 127 100.9" width="127" height="100.9" style="enable-background:new 0 0 127 100.9;" xml:space="preserve">
	<style type="text/css">
		.st0{fill:none;stroke:#fff;stroke-width:2;stroke-linecap:round;stroke-linejoin:round;stroke-miterlimit:10;}
	</style>
	<path class="st0" d="M115.4,32.2V6.9c0-3.2-2.6-5.9-5.9-5.9H6.9C3.6,1,1,3.6,1,6.9V78c0,3.2,2.6,5.9,5.9,5.9h76.8"/>
	<line class="st0" x1="1" y1="66.1" x2="70.5" y2="66.1"/>
	<path class="st0" d="M60.8,75.3c0,1.4-1.1,2.5-2.5,2.5c-1.4,0-2.5-1.1-2.5-2.5c0-1.4,1.1-2.5,2.5-2.5C59.6,72.7,60.8,73.9,60.8,75.3z"/>
	<line class="st0" x1="43.9" y1="83.9" x2="40.4" y2="99.9"/>
	<line class="st0" x1="72.5" y1="83.9" x2="76" y2="99.9"/>
	<line class="st0" x1="87.7" y1="99.9" x2="28.8" y2="99.9"/>
	<path class="st0" d="M123.2,61.7c0-1-0.1-2-0.2-3l-6.4-1.9l4.1-5.3c-0.9-1.8-2.1-3.4-3.5-4.8L111,49l0.2-6.6
		c-1.8-0.9-3.7-1.5-5.7-1.8l-3.8,5.5L98,40.5c-2,0.4-3.9,1-5.7,1.8l0.2,6.6l-6.3-2.2c-1.4,1.4-2.6,3-3.5,4.8l4.1,5.3l-6.4,1.9
		c-0.1,1-0.2,2-0.2,3c0,1,0.1,2,0.2,3l6.4,1.9l-4.1,5.3c0.9,1.8,2.1,3.4,3.5,4.8l6.3-2.2L92.3,81c1.8,0.9,3.7,1.5,5.7,1.8l3.8-5.5
		l3.8,5.5c2-0.4,3.9-1,5.7-1.8l-0.2-6.6l6.3,2.2c1.4-1.4,2.6-3,3.5-4.8l-4.1-5.3l6.4-1.9C123.2,63.7,123.2,62.7,123.2,61.7z"/>
	<path class="st0" d="M126,75.3c-2.7,4.8-6.7,8.7-11.6,11.2"/>
	<path class="st0" d="M97.6,34.2c1.3-0.2,2.7-0.3,4.1-0.3"/>
	<path class="st0" d="M73.9,61.7c0-11.3,6.8-21.1,16.5-25.4"/>
	<ellipse transform="matrix(0.9228 -0.3853 0.3853 0.9228 -15.91 43.954)" class="st0" cx="101.7" cy="61.7" rx="11" ry="11"/>
	<path class="st0" d="M95.2,61.7c0-3.6,2.9-6.5,6.5-6.5c3.6,0,6.5,2.9,6.5,6.5c0,3.6-2.9,6.5-6.5,6.5C98.1,68.2,95.2,65.3,95.2,61.7z"/>
	<polyline class="st0" points="11.4,41.5 17.5,41.5 23.9,23.9 38,56.2 58.7,11.6 70.1,33.9 77.4,34.2"/>
</svg>
