<?xml version="1.0" encoding="utf-8"?>
<svg version="1.1" xmlns="http://www.w3.org/2000/svg" xmlns:xlink="http://www.w3.org/1999/xlink" x="0px" y="0px" viewBox="0 0 127 122.8" width="127" height="122.8" style="enable-background:new 0 0 127 122.8;" xml:space="preserve">
	<style type="text/css">
		.st0{fill:none;stroke:#fff;stroke-width:2;stroke-linecap:round;stroke-linejoin:round;stroke-miterlimit:10;}
	</style>
	<path class="st0" d="M14.9,66.4l0-27.3c0-3.8-3.1-7-7-7l0,0c-3.8,0-7,3.1-7,7v43.9c0,5.8,2.3,11.4,6.4,15.5L20,111c2.9,2.9,4.5,6.8,4.5,10.8l0,0"/>
	<path class="st0" d="M26.6,96.3L15,84.7c-2.8-2.8-2.8-7.5,0-10.3l0,0c2.8-2.8,7.5-2.8,10.3,0l18.5,18.5c2.5,2.5,3.8,5.8,3.8,9.3v19.6"/>
	<path class="st0" d="M112.1,66.3l0-27.2c0-3.8,3.1-7,7-7l0,0c3.8,0,7,3.1,7,7v43.9c0,5.8-2.3,11.4-6.4,15.5L107,111c-2.9,2.9-4.5,6.8-4.5,10.8l0,0"/>
	<path class="st0" d="M100.4,96.3L112,84.7c2.8-2.8,2.8-7.5,0-10.3l0,0c-2.8-2.8-7.5-2.8-10.3,0L83.3,92.9c-2.5,2.5-3.8,5.8-3.8,9.3v19.6"/>
	<polyline class="st0" points="63.5,121.8 63.5,76.9 40.6,54 40.6,11.4"/>
	<path class="st0" d="M45.8,6.2c0,2.9-2.3,5.2-5.2,5.2c-2.9,0-5.2-2.3-5.2-5.2c0-2.9,2.3-5.2,5.2-5.2C43.5,1,45.8,3.3,45.8,6.2z"/>
	<path class="st0" d="M81.4,45.4c0,2.9-2.3,5.2-5.2,5.2c-2.9,0-5.2-2.3-5.2-5.2c0-2.9,2.3-5.2,5.2-5.2C79.1,40.2,81.4,42.5,81.4,45.4z"/>
	<line class="st0" x1="52" y1="39.8" x2="52" y2="65.5"/>
	<line class="st0" x1="52" y1="29.1" x2="52" y2="32.1"/>
	<polyline class="st0" points="40.6,43.1 21.7,24.1 21.7,6.9 8.8,6.9"/>
	<line class="st0" x1="8.8" y1="14.1" x2="21.7" y2="14.1"/>
	<line class="st0" x1="32.2" y1="62.1" x2="30.6" y2="60.5"/>
	<line class="st0" x1="40.6" y1="70.5" x2="36.9" y2="66.8"/>
	<polyline class="st0" points="44.8,74.7 48.4,78.3 63.5,93.4 99.6,57.3 99.6,15.8 117.1,15.8 117.1,1"/>
	<line class="st0" x1="109.3" y1="11.4" x2="109.3" y2="15.8"/>
	<line class="st0" x1="109.3" y1="2.6" x2="109.3" y2="6.2"/>
	<line class="st0" x1="76.2" y1="50.6" x2="76.2" y2="80.7"/>
	<line class="st0" x1="88.3" y1="9.8" x2="88.3" y2="6.9"/>
	<line class="st0" x1="88.3" y1="24.1" x2="88.3" y2="16.6"/>
	<line class="st0" x1="88.3" y1="68.6" x2="88.3" y2="34.2"/>
	<line class="st0" x1="122.3" y1="113.5" x2="121" y2="114.9"/>
	<line class="st0" x1="116.9" y1="119" x2="115.5" y2="120.3"/>
	<line class="st0" x1="122.3" y1="120.3" x2="121" y2="119"/>
	<line class="st0" x1="116.9" y1="114.9" x2="115.5" y2="113.5"/>
	<line class="st0" x1="10.3" y1="110.3" x2="8.9" y2="111.6"/>
	<line class="st0" x1="4.9" y1="115.7" x2="3.5" y2="117"/>
	<line class="st0" x1="10.3" y1="117" x2="8.9" y2="115.7"/>
	<line class="st0" x1="4.9" y1="111.6" x2="3.5" y2="110.3"/>
</svg>