<?xml version="1.0" encoding="utf-8"?>
<svg version="1.1" xmlns="http://www.w3.org/2000/svg" xmlns:xlink="http://www.w3.org/1999/xlink" x="0px" y="0px" viewBox="0 0 93.1 127" width="93.1" height="127" style="enable-background:new 0 0 93.1 127;" xml:space="preserve">
	<style type="text/css">
		.st0{fill:none;stroke:#fff;stroke-width:2;stroke-linecap:round;stroke-linejoin:round;stroke-miterlimit:10;}
	</style>
	<path class="st0" d="M31.8,17.8c0,1.4-1.1,2.5-2.5,2.5c-1.4,0-2.5-1.1-2.5-2.5s1.1-2.5,2.5-2.5C30.6,15.3,31.8,16.4,31.8,17.8z"/>
	<path class="st0" d="M49.1,14c0,1.4-1.1,2.5-2.5,2.5c-1.4,0-2.5-1.1-2.5-2.5s1.1-2.5,2.5-2.5C47.9,11.5,49.1,12.6,49.1,14z"/>
	<path class="st0" d="M67.1,17.9c0,1.4-1.1,2.5-2.5,2.5c-1.4,0-2.5-1.1-2.5-2.5s1.1-2.5,2.5-2.5C66,15.4,67.1,16.5,67.1,17.9z"/>
	<path class="st0" d="M79,30c0,1.4-1.1,2.5-2.5,2.5c-1.4,0-2.5-1.1-2.5-2.5s1.1-2.5,2.5-2.5C77.8,27.5,79,28.6,79,30z"/>
	<path class="st0" d="M84,45.3c0,1.4-1.1,2.5-2.5,2.5c-1.4,0-2.5-1.1-2.5-2.5s1.1-2.5,2.5-2.5C82.9,42.7,84,43.9,84,45.3z"/>
	<path class="st0" d="M79,59.8c0,1.4-1.1,2.5-2.5,2.5c-1.4,0-2.5-1.1-2.5-2.5s1.1-2.5,2.5-2.5C77.8,57.3,79,58.4,79,59.8z"/>
	<path class="st0" d="M22.7,29c0,1.4-1.1,2.5-2.5,2.5s-2.5-1.1-2.5-2.5c0-1.4,1.1-2.5,2.5-2.5S22.7,27.6,22.7,29z"/>
	<path class="st0" d="M31.8,41.1c0,1.4-1.1,2.5-2.5,2.5c-1.4,0-2.5-1.1-2.5-2.5c0-1.4,1.1-2.5,2.5-2.5C30.6,38.5,31.8,39.7,31.8,41.1z"/>
	<path class="st0" d="M49.6,41.1c0,1.4-1.1,2.5-2.5,2.5c-1.4,0-2.5-1.1-2.5-2.5c0-1.4,1.1-2.5,2.5-2.5C48.5,38.5,49.6,39.7,49.6,41.1z"/>
	<path class="st0" d="M62.5,32.2c0,1.4-1.1,2.5-2.5,2.5c-1.4,0-2.5-1.1-2.5-2.5c0-1.4,1.1-2.5,2.5-2.5C61.4,29.6,62.5,30.8,62.5,32.2z"/>
	<path class="st0" d="M42.2,29c0,1.4-1.1,2.5-2.5,2.5c-1.4,0-2.5-1.1-2.5-2.5c0-1.4,1.1-2.5,2.5-2.5C41.1,26.4,42.2,27.6,42.2,29z"/>
	<path class="st0" d="M64.6,50c0,1.4-1.1,2.5-2.5,2.5c-1.4,0-2.5-1.1-2.5-2.5c0-1.4,1.1-2.5,2.5-2.5C63.4,47.5,64.6,48.6,64.6,50z"/>
	<path class="st0" d="M72.4,41.6c0,1.4-1.1,2.5-2.5,2.5s-2.5-1.1-2.5-2.5c0-1.4,1.1-2.5,2.5-2.5S72.4,40.2,72.4,41.6z"/>
	<line class="st0" x1="69.3" y1="103.3" x2="69.3" y2="103.3"/>
	<line class="st0" x1="48.5" y1="66.2" x2="48.5" y2="66.2"/>
	<line class="st0" x1="47.1" y1="70.5" x2="47.1" y2="70.5"/>
	<line class="st0" x1="45.2" y1="74.8" x2="45.2" y2="74.8"/>
	<path class="st0" d="M32.9,3.3C21.4,7.1,11.8,15.5,6.5,26.6c0,0,0,0,0,0.1c-3,4.6-4.5,11.2-4.9,18.9c-0.1,1.3,0.1,2.6,0.6,3.8
		c1.7,4.5,6,17.5,2.3,25.6L1.3,82c-0.7,1.6,0,3.4,1.6,4.1l7.1,3.1c0.7,1.5,1.3,3.3,0.6,5c-0.8,1.9-2.8,2.4-2.7,3.7
		c0,0.6,0.7,1.5,3.3,2.4c-2.2,2-1.1,5.6,1.8,6c2.1,0.3,3.6,2.2,3.4,4.3c0.5,1.6,1.5,3.6,3.5,4.8c1,0.6,5.1,2.8,16-3.2
		c6-3.3,16.7-10.5,27.5-26.2"/>
	<path class="st0" d="M75.7,80.7c9.2-7.6,15.5-18.9,16.3-32c1.4-22.6-14.7-43-37-47c-4.3-0.8-8.6-0.9-12.7-0.5"/>
	<polyline class="st0" points="40.9,109.5 46.5,126 53.2,126"/>
	<polyline class="st0" points="82.7,99.9 92.1,126 65.6,126"/>
	<line class="st0" x1="75.7" y1="80.7" x2="80" y2="92.6"/>
	<path class="st0" d="M5.3,58.1c0,0,5.4-8.3,14.9-1.9"/>
	<path class="st0" d="M58.2,63.3l-7,15.8c-1.4,3.2-4.3,5.6-7.7,6.4l-17.1,4"/>
	<line class="st0" x1="27.3" y1="19.5" x2="21.7" y2="27"/>
	<line class="st0" x1="31.4" y1="16.6" x2="44" y2="14"/>
	<line class="st0" x1="46.5" y1="16.6" x2="41.2" y2="27"/>
	<line class="st0" x1="62.4" y1="16.6" x2="49.1" y2="14"/>
	<line class="st0" x1="66.5" y1="19.5" x2="75.1" y2="27.9"/>
	<line class="st0" x1="77.8" y1="32.2" x2="81.5" y2="42.7"/>
	<line class="st0" x1="81.5" y1="47.8" x2="77.8" y2="57.7"/>
	<line class="st0" x1="74.6" y1="58.1" x2="64" y2="51.6"/>
	<line class="st0" x1="60" y1="48.5" x2="49.1" y2="42.6"/>
	<line class="st0" x1="45.2" y1="39.5" x2="31.8" y2="41.1"/>
	<line class="st0" x1="27.3" y1="39.4" x2="21.7" y2="31"/>
	<line class="st0" x1="38.2" y1="31" x2="30.7" y2="39"/>
	<line class="st0" x1="30.7" y1="19.9" x2="37.7" y2="27.4"/>
	<line class="st0" x1="63.4" y1="20.1" x2="61.3" y2="30"/>
	<line class="st0" x1="74.6" y1="31.8" x2="62.5" y2="32.2"/>
	<line class="st0" x1="42.2" y1="29" x2="57.5" y2="32.2"/>
	<line class="st0" x1="79" y1="45.3" x2="71.8" y2="43.2"/>
	<line class="st0" x1="67.4" y1="41.6" x2="61.3" y2="34.3"/>
	<line class="st0" x1="68" y1="43.2" x2="64" y2="48.4"/>
	<line class="st0" x1="58.2" y1="33.9" x2="49" y2="39.5"/>
	<line class="st0" x1="46.5" y1="89.5" x2="27.3" y2="94.1"/>
	<line class="st0" x1="72.4" y1="92.7" x2="84" y2="126"/>
	<line class="st0" x1="75.1" y1="119" x2="77.8" y2="126"/>
	<line class="st0" x1="70.8" y1="107.6" x2="73.3" y2="114.3"/>
	<path class="st0" d="M14.5,59.8c0,0-8.6-1.2-8.7,4.5"/>
</svg>