<?xml version="1.0" encoding="utf-8"?>
<svg version="1.1" xmlns="http://www.w3.org/2000/svg" xmlns:xlink="http://www.w3.org/1999/xlink" x="0px" y="0px" viewBox="0 0 127 127" width="127" height="127" style="enable-background:new 0 0 127 127;" xml:space="preserve">
<style type="text/css">
	.st0{fill:none;stroke:#fff;stroke-width:2;stroke-linecap:round;stroke-linejoin:round;stroke-miterlimit:10;}
</style>
	<line class="st0" x1="63.5" y1="37" x2="63.5" y2="44.6"/>
	<line class="st0" x1="91.9" y1="93.8" x2="91.9" y2="93.8"/>
	<line class="st0" x1="76.8" y1="37" x2="76.8" y2="37"/>
	<line class="st0" x1="50.3" y1="37" x2="50.3" y2="37"/>
	<line class="st0" x1="42.7" y1="37" x2="42.7" y2="37"/>
	<line class="st0" x1="35.1" y1="37" x2="35.1" y2="37"/>
	<line class="st0" x1="50.3" y1="29.4" x2="50.3" y2="29.4"/>
	<line class="st0" x1="46.5" y1="63.5" x2="37.7" y2="63.5"/>
	<line class="st0" x1="63.5" y1="114.6" x2="63.5" y2="99.5"/>
	<polyline class="st0" points="57.6,105.4 63.5,99.5 69.4,105.4"/>
	<line class="st0" x1="63.5" y1="12.4" x2="63.5" y2="27.5"/>
	<polyline class="st0" points="69.4,21.6 63.5,27.5 57.6,21.6"/>
	<line class="st0" x1="12.4" y1="63.5" x2="27.5" y2="63.5"/>
	<polyline class="st0" points="21.6,57.6 27.5,63.5 21.6,69.4"/>
	<ellipse transform="matrix(0.7071 -0.7071 0.7071 0.7071 -26.3026 63.5)" class="st0" cx="63.5" cy="63.5" rx="62.5" ry="62.5"/>
	<path class="st0" d="M46.5,111.7c-19.9-7-34.1-26-34.1-48.2"/>
	<line class="st0" x1="114.6" y1="63.5" x2="99.5" y2="63.5"/>
	<polyline class="st0" points="105.4,69.4 99.5,63.5 105.4,57.6"/>
	<path class="st0" d="M80.5,15.3c19.9,7,34.1,26,34.1,48.2"/>
	<path class="st0" d="M111.7,80.5c-7,19.9-26,34.1-48.2,34.1"/>
	<path class="st0" d="M15.3,46.5c7-19.9,26-34.1,48.2-34.1"/>
	<rect x="59.7" y="59.7" class="st0" width="7.6" height="7.6"/>
	<rect x="73" y="59.7" class="st0" width="7.6" height="7.6"/>
	<rect x="46.5" y="59.7" class="st0" width="7.6" height="7.6"/>
	<rect x="59.7" y="74.9" class="st0" width="7.6" height="7.6"/>
	<rect x="73" y="74.9" class="st0" width="7.6" height="7.6"/>
	<rect x="46.5" y="74.9" class="st0" width="7.6" height="7.6"/>
	<rect x="59.7" y="44.6" class="st0" width="7.6" height="7.6"/>
	<rect x="73" y="44.6" class="st0" width="7.6" height="7.6"/>
	<rect x="46.5" y="44.6" class="st0" width="7.6" height="7.6"/>
	<line class="st0" x1="95.7" y1="48.3" x2="95.7" y2="48.3"/>
	<line class="st0" x1="103.3" y1="48.3" x2="103.3" y2="48.3"/>
	<line class="st0" x1="95.7" y1="40.8" x2="95.7" y2="40.8"/>
	<line class="st0" x1="50.3" y1="97.6" x2="50.3" y2="97.6"/>
	<line class="st0" x1="42.7" y1="97.6" x2="42.7" y2="97.6"/>
	<polyline class="st0" points="80.6,63.5 88.1,63.5 88.1,78.7 80.6,78.7"/>
	<line class="st0" x1="80.6" y1="48.3" x2="88.1" y2="48.3"/>
	<line class="st0" x1="88.1" y1="71.1" x2="91.9" y2="71.1"/>
	<line class="st0" x1="50.3" y1="82.4" x2="50.3" y2="90"/>
	<polyline class="st0" points="76.8,82.4 76.8,93.8 84.4,93.8"/>
	<polyline class="st0" points="46.5,48.3 37.7,48.3 37.7,78.7 46.5,78.7"/>
</svg>