<?xml version="1.0" encoding="utf-8"?>
<svg version="1.1" xmlns="http://www.w3.org/2000/svg" xmlns:xlink="http://www.w3.org/1999/xlink" x="0px" y="0px" viewBox="0 0 136.1 109.9" width="136.1" height="109.9" style="enable-background:new 0 0 136.1 109.9;" xml:space="preserve">
	<style type="text/css">
		.st0{fill:none;stroke:#fff;stroke-width:2;stroke-linecap:round;stroke-linejoin:round;stroke-miterlimit:10;}
	</style>
	<path class="st0" d="M90.4,36.4c0.9-2.8,1.4-5.9,1.4-9.1C91.8,12.3,80.9,1,67.5,1C54.1,1,43.3,12.3,43.3,27.4c0,3.2,0.5,6.2,1.4,9.1c-1.9,1.3-3.1,3.4-3.1,5.9c0,3.2,2.1,6,5,6.8c3.5,10.4,11.6,17.6,21,17.6c9.4,0,17.5-7.3,21-17.6c2.9-0.8,5-3.5,5-6.8C93.5,39.9,92.3,37.7,90.4,36.4z"/>
	<path class="st0" d="M86.8,26.7c-0.8-3.3-4.3-5.8-7.1-5.8c-0.9,0-3.7,0.8-3.7,0.8l3.5-5.5c0,0-3-0.1-8.1,4.5c-10.5,9.4-22.1,2-22.1,2"/>
	<path class="st0" d="M61.5,37.8c-0.6-0.5-1.7-0.8-3-0.8c-1.2,0-2.3,0.3-3,0.8"/>
	<path class="st0" d="M79.5,37.8c-0.6-0.5-1.7-0.8-3-0.8c-1.2,0-2.3,0.3-3,0.8"/>
	<path class="st0" d="M44.7,26.7"/>
	<polyline class="st0" points="67.8,78.7 76.8,88.8 88.7,75.7 83.6,66.9"/>
	<path class="st0" d="M47,75.3l-22.5,9.2c-1.4,0.9-2.6,2-3.6,3.3c-1.5,2.1-2.4,4.7-2.4,7.4v13.6"/>
	<path class="st0" d="M88.6,75.3l23,9.7c4.3,2.2,6,6.3,6,10.7v0.9v12.3"/>
	<path class="st0" d="M45.7,39.7"/>
	<polyline class="st0" points="67.8,78.7 58.9,88.8 46.9,75.7 52.1,66.9"/>
	<line class="st0" x1="83.6" y1="66.9" x2="67.8" y2="78.7"/>
	<line class="st0" x1="52.1" y1="66.9" x2="67.8" y2="78.7"/>
	<path class="st0" d="M126.3,47.2c0.5-1.5,0.7-3.2,0.7-4.9c0-8.1-5.8-14.2-13.1-14.2s-13.1,6.1-13.1,14.2c0,1.7,0.3,3.4,0.7,4.9c-1,0.7-1.7,1.8-1.7,3.2c0,1.7,1.1,3.2,2.7,3.7c1.9,5.6,6.2,9.5,11.3,9.5c5.1,0,9.4-3.9,11.3-9.5c1.6-0.4,2.7-1.9,2.7-3.7C128,49.1,127.3,47.9,126.3,47.2z"/>
	<path class="st0" d="M101.7,43.1"/>
	<polyline class="st0" points="114.2,71.1 119,76.5 125.4,69.4 122.6,64.7"/>
	<line class="st0" x1="103" y1="69.3" x2="89" y2="75"/>
	<line class="st0" x1="125.3" y1="69.3" x2="135.1" y2="73.4"/>
	<path class="st0" d="M102.3,50.1"/>
	<polyline class="st0" points="114.2,71.1 109.4,76.5 102.9,69.4 105.7,64.7"/>
	<line class="st0" x1="122.6" y1="64.7" x2="114.2" y2="71.1"/>
	<line class="st0" x1="105.7" y1="64.7" x2="114.2" y2="71.1"/>
	<path class="st0" d="M9.8,47.2c-0.5-1.5-0.7-3.2-0.7-4.9c0-8.1,5.8-14.2,13.1-14.2s13.1,6.1,13.1,14.2c0,1.7-0.3,3.4-0.7,4.9c1,0.7,1.7,1.8,1.7,3.2c0,1.7-1.1,3.2-2.7,3.7c-1.9,5.6-6.2,9.5-11.3,9.5s-9.4-3.9-11.3-9.5c-1.6-0.4-2.7-1.9-2.7-3.7C8.1,49.1,8.8,47.9,9.8,47.2z"/>
	<path class="st0" d="M34.4,43.1"/>
	<polyline class="st0" points="22,71.1 17.2,76.5 10.7,69.4 13.5,64.7"/>
	<line class="st0" x1="33.2" y1="69.3" x2="47.2" y2="75"/>
	<line class="st0" x1="10.8" y1="69.3" x2="1" y2="73.4"/>
	<path class="st0" d="M33.9,50.1"/>
	<polyline class="st0" points="22,71.1 26.8,76.5 33.2,69.4 30.4,64.7"/>
	<line class="st0" x1="13.5" y1="64.7" x2="22" y2="71.1"/>
	<line class="st0" x1="30.4" y1="64.7" x2="22" y2="71.1"/>
</svg>