<?xml version="1.0" encoding="utf-8"?>
<svg version="1.1" xmlns="http://www.w3.org/2000/svg" xmlns:xlink="http://www.w3.org/1999/xlink" x="0px" y="0px" viewBox="0 0 120.1 107.8" width="120.1" height="107.8" style="enable-background:new 0 0 120.1 107.8;" xml:space="preserve">
	<style type="text/css">
		.st0{fill:none;stroke:#fff;stroke-width:2;stroke-linecap:round;stroke-linejoin:round;stroke-miterlimit:10;}
	</style>
	<line class="st0" x1="90" y1="52.4" x2="17.6" y2="52.4"/>
	<line class="st0" x1="104.8" y1="52.4" x2="97.1" y2="52.4"/>
	<line class="st0" x1="75.4" y1="6.3" x2="67.7" y2="6.3"/>
	<line class="st0" x1="62.4" y1="6.3" x2="61.1" y2="6.3"/>
	<path class="st0" d="M115.1,31.5H5.1c-2.2,0-4.1,1.8-4.1,4.1v12.8c0,2.2,1.8,4.1,4.1,4.1h3.2l6.3,49.3c0.4,2.9,2.8,5.1,5.7,5.1h79.6c2.9,0,5.4-2.2,5.7-5.1l6.3-49.3h3.2c2.2,0,4.1-1.8,4.1-4.1V35.6C119.1,33.4,117.3,31.5,115.1,31.5z"/>
	<path class="st0" d="M79.3,11.6H40.8c-1.4,0-2.5-1.1-2.5-2.5V3.5c0-1.4,1.1-2.5,2.5-2.5h38.5c1.4,0,2.5,1.1,2.5,2.5v5.6C81.9,10.5,80.7,11.6,79.3,11.6z"/>
	<polyline class="st0" points="109.2,40.5 97,6.4 81.9,6.4"/>
	<polyline class="st0" points="38.3,6.4 23.2,6.4 11,40.5"/>
	<line class="st0" x1="60.1" y1="65" x2="60.1" y2="93.1"/>
	<line class="st0" x1="75.8" y1="65" x2="74.3" y2="93.1"/>
	<line class="st0" x1="91.5" y1="65" x2="88.6" y2="93.1"/>
	<line class="st0" x1="44.4" y1="65" x2="45.8" y2="93.1"/>
	<line class="st0" x1="28.7" y1="65" x2="31.6" y2="93.1"/>
	<line class="st0" x1="8.3" y1="41.5" x2="15.3" y2="41.5"/>
	<line class="st0" x1="104.9" y1="41.5" x2="111.9" y2="41.5"/>
</svg>