<?xml version="1.0" encoding="utf-8"?>
<svg version="1.1" xmlns="http://www.w3.org/2000/svg" xmlns:xlink="http://www.w3.org/1999/xlink" x="0px" y="0px" viewBox="0 0 119.5 118.3" width="119.5" height="118.3" style="enable-background:new 0 0 119.5 118.3;" xml:space="preserve">
	<style type="text/css">
		.st0{fill:none;stroke:#fff;stroke-width:2;stroke-linecap:round;stroke-linejoin:round;stroke-miterlimit:10;}
	</style>
	<line class="st0" x1="6.4" y1="100" x2="1" y2="105.4"/>
	<line class="st0" x1="9.1" y1="110.4" x2="6.8" y2="112.7"/>
	<path class="st0" d="M81.5,24.2c2-0.5,4.1-0.4,6.1,0.2"/>
	<path class="st0" d="M76,43.4c-4.5-4.5-4.5-11.7,0-16.2"/>
	<circle class="st0" cx="84.1" cy="35.3" r="17.1"/>
	<path class="st0" d="M42.2,41.3c-9.8-1.6-20.2,1.4-27.8,9c-3,3-5.2,6.4-6.8,10c7-1.3,15.1-1.5,23.8-0.4C34.2,53.5,37.8,47.3,42.2,41.3z"/>
	<path class="st0" d="M60.1,105.5c-0.1,0.5-0.6,4-0.7,4.4c-0.1,0.6-0.2,1.3-0.3,1.9c3.6-1.6,7.1-3.8,10-6.8c7.6-7.6,10.6-17.9,9-27.8c-6,4.4-12.2,8-18.6,10.7c0.6,4.7,0.8,9.2,0.7,13.5"/>
	<path class="st0" d="M51.9,73c4.8,4.4,9.9,8,15.4,11.1"/>
	<path class="st0" d="M35.4,52.2c3,5.4,6.7,10.6,11.1,15.4"/>
	<path class="st0" d="M33.7,85.8L33.7,85.8c-1.5-1.5-1.5-3.9,0-5.4l20-20c1.5-1.5,3.9-1.5,5.4,0v0c1.5,1.5,1.5,3.9,0,5.4l-20,20C37.6,87.2,35.2,87.2,33.7,85.8z"/>
	<path class="st0" d="M46.5,78.4c4.1,3.7,8.4,6.9,12.9,9.7c10.9-4.7,21.5-11.8,30.9-21.2c19.3-19.3,29-43.9,28.1-65.8C96.5,0.2,71.9,9.8,52.6,29.2c-9.4,9.4-16.4,20-21.2,30.9c2.8,4.5,6,8.9,9.7,12.9"/>
	<path class="st0" d="M94.5,4.1c2.6,4.3,5.6,8.2,9.2,11.7c3.6,3.6,7.5,6.6,11.7,9.1"/>
	<path class="st0" d="M55.5,93.1c-3.4-2.1-6.8-4.6-10.1-7.4L42.1,89c-3.1,3.1-8.2,3.1-11.3,0v0c-3.1-3.1-3.1-8.2,0-11.3l3.3-3.3c-2.9-3.4-5.5-7-7.8-10.6c-2.9,1.6-5.8,3.7-8.4,6.4c-7.5,7.5-11,17-9.6,24.1c1.5,0.3,3.1,0.4,4.8,0.3c-1.4,4.5-1.7,8.8-0.9,12.6c3.8,0.8,8.2,0.4,12.6-0.9c-0.1,1.7-0.1,3.3,0.3,4.8c7.1,1.5,16.6-2,24.1-9.6C51.8,98.9,53.9,96,55.5,93.1z"/>
	<line class="st0" x1="19.1" y1="54.2" x2="9.9" y2="63.4"/>
	<line class="st0" x1="16" y1="65" x2="9.1" y2="71.9"/>
	<line class="st0" x1="5.2" y1="68" x2="3.7" y2="69.6"/>
	<line class="st0" x1="65.3" y1="100.4" x2="50.4" y2="115.2"/>
	<line class="st0" x1="54.5" y1="103.5" x2="47.6" y2="110.4"/>
	<line class="st0" x1="42.9" y1="115" x2="40.6" y2="117.3"/>
</svg>