<?xml version="1.0" encoding="utf-8"?>
<svg version="1.1" xmlns="http://www.w3.org/2000/svg" xmlns:xlink="http://www.w3.org/1999/xlink" x="0px" y="0px" viewBox="0 0 126.5 100.2" width="126.5" height="100.2" style="enable-background:new 0 0 126.5 100.2;" xml:space="preserve">
<style type="text/css">
	.st0{fill:none;stroke:#fff;stroke-width:1.5;stroke-linecap:round;stroke-linejoin:round;stroke-miterlimit:10;}
</style>
	<polyline class="st0" points="51.1,36.9 31.4,36.9 31.4,42.3"/>
	<polyline class="st0" points="74.7,36.9 93.8,36.9 93.8,42.3"/>
	<path class="st0" d="M68.9,38.6c0,3.3-2.7,6-6,6s-6-2.7-6-6c0-3.3,2.7-6,6-6S68.9,35.3,68.9,38.6z"/>
	<polyline class="st0" points="51.1,87.9 51.1,27.8 74.7,27.8 74.7,87.9"/>
	<polyline class="st0" points="62.8,35.8 62.8,38.6 64.4,40.2"/>
	<line class="st0" x1="59.9" y1="21.9" x2="61.5" y2="23.9"/>
	<line class="st0" x1="63.1" y1="18.9" x2="66.2" y2="22.9"/>
	<polyline class="st0" points="51.1,27.8 62.6,12.1 74.7,27.8"/>
	<polyline class="st0" points="62.6,12.1 62.6,3 62.6,0.8"/>
	<line class="st0" x1="38.4" y1="93.8" x2="68.5" y2="93.8"/>
	<polyline class="st0" points="78.6,93.8 110.3,93.8 110.3,99.4 15.8,99.4 15.8,93.8 31.4,93.8"/>
	<polyline class="st0" points="21.2,93.5 21.2,87.9 105,87.9 105,93.5"/>
	<polyline class="st0" points="26.9,87.9 26.9,47.9 51.1,47.9"/>
	<polyline class="st0" points="74.7,47.9 97.7,47.9 97.7,87.9"/>
	<path class="st0" d="M56.6,87.9v-9.4c0-3.8,2.8-6.9,6.3-6.9l0,0c3.5,0,6.3,3.1,6.3,6.9v9.4"/>
	<rect x="41.2" y="77" class="st0" width="5.3" height="5.3"/>
	<rect x="31.5" y="77" class="st0" width="5.3" height="5.3"/>
	<rect x="41.2" y="65.4" class="st0" width="5.3" height="5.3"/>
	<rect x="31.5" y="65.4" class="st0" width="5.3" height="5.3"/>
	<rect x="41.2" y="53.8" class="st0" width="5.3" height="5.3"/>
	<rect x="31.5" y="53.8" class="st0" width="5.3" height="5.3"/>
	<rect x="6.6" y="83" transform="matrix(-1 -1.224647e-16 1.224647e-16 -1 18.566 171.307)" class="st0" width="5.3" height="5.3"/>
	<polyline class="st0" points="21.6,83 16.3,83 16.3,88.3"/>		
	<rect x="6.6" y="71.4" transform="matrix(-1 -1.224647e-16 1.224647e-16 -1 18.566 148.058)" class="st0" width="5.3" height="5.3"/>		
	<rect x="16.3" y="71.4" transform="matrix(-1 -1.224647e-16 1.224647e-16 -1 37.9401 148.058)" class="st0" width="5.3" height="5.3"/>		
	<rect x="6.6" y="59.8" transform="matrix(-1 -1.224647e-16 1.224647e-16 -1 18.566 124.8091)" class="st0" width="5.3" height="5.3"/>		
	<rect x="16.3" y="59.8" transform="matrix(-1 -1.224647e-16 1.224647e-16 -1 37.9401 124.8091)" class="st0" width="5.3" height="5.3"/>
	<rect x="114.3" y="83" class="st0" width="5.3" height="5.3"/>
	<polyline class="st0" points="104.6,83 109.9,83 109.9,88.3"/>
	<rect x="114.3" y="71.4" class="st0" width="5.3" height="5.3"/>
	<rect x="104.6" y="71.4" class="st0" width="5.3" height="5.3"/>
	<rect x="114.3" y="59.8" class="st0" width="5.3" height="5.3"/>
	<rect x="104.6" y="59.8" class="st0" width="5.3" height="5.3"/>
	<rect x="88.3" y="77" class="st0" width="5.3" height="5.3"/>
	<rect x="78.6" y="77" class="st0" width="5.3" height="5.3"/>
	<rect x="88.3" y="65.4" class="st0" width="5.3" height="5.3"/>
	<rect x="78.6" y="65.4" class="st0" width="5.3" height="5.3"/>
	<rect x="88.3" y="53.8" class="st0" width="5.3" height="5.3"/>
	<rect x="78.6" y="53.8" class="st0" width="5.3" height="5.3"/>
	<polyline class="st0" points="97.7,53.8 125.7,53.8 125.7,99.4 110.7,99.4"/>
	<polyline class="st0" points="26.9,53.8 0.8,53.8 0.8,99.4 15.8,99.4"/>
	<line class="st0" x1="67.7" y1="51.4" x2="69.9" y2="51.4"/>
	<line class="st0" x1="71.2" y1="56.1" x2="66.2" y2="56.1"/>
	<line class="st0" x1="65.2" y1="60.5" x2="58.5" y2="60.5"/>
	<line class="st0" x1="54.1" y1="56.1" x2="61.5" y2="56.1"/>
	<line class="st0" x1="56.8" y1="51.4" x2="63.3" y2="51.4"/>
	<line class="st0" x1="70.5" y1="60.5" x2="70.7" y2="60.5"/>
	<polyline class="st0" points="51.1,42.3 26.9,42.3 26.9,47.9"/>
	<polyline class="st0" points="74.7,42.3 97.7,42.3 97.7,47.9"/>
	<polyline class="st0" points="62.6,2.8 72.2,2.8 72.2,8.1 62.6,8.1"/>
</svg>