<?xml version="1.0" encoding="utf-8"?>
<svg version="1.1" xmlns="http://www.w3.org/2000/svg" xmlns:xlink="http://www.w3.org/1999/xlink" x="0px" y="0px" viewBox="0 0 117.9 118" width="117.9" height="118" style="enable-background:new 0 0 117.9 118;" xml:space="preserve">
	<style type="text/css">
		.st0{fill:none;stroke:#a7abb4;stroke-width:1.5;stroke-linecap:round;stroke-linejoin:round;stroke-miterlimit:10;}
	</style>
	<rect x="0.8" y="5.5" class="st0" width="45.8" height="111.8"/>
	<polyline class="st0" points="4.1,5.5 4.1,0.8 43.2,0.8 43.2,5.5"/>
	<polyline class="st0" points="47,18.5 117.1,18.5 117.1,117.3 47,117.3"/>
	<line class="st0" x1="7.2" y1="13.3" x2="7.2" y2="117.3"/>
	<line class="st0" x1="13.8" y1="13.3" x2="13.8" y2="117.3"/>
	<line class="st0" x1="20.4" y1="13.3" x2="20.4" y2="117.3"/>
	<line class="st0" x1="26.9" y1="13.3" x2="26.9" y2="117.3"/>
	<line class="st0" x1="33.5" y1="13.3" x2="33.5" y2="117.3"/>
	<line class="st0" x1="40" y1="13.3" x2="40" y2="117.3"/>
	<rect x="53.7" y="32.8" class="st0" width="5.6" height="5.6"/>
	<rect x="66.4" y="32.8" class="st0" width="5.6" height="5.6"/>
	<rect x="79.2" y="32.8" class="st0" width="5.6" height="5.6"/>
	<rect x="92" y="32.8" class="st0" width="5.6" height="5.6"/>
	<rect x="104.8" y="32.8" class="st0" width="5.6" height="5.6"/>
	<line class="st0" x1="59.3" y1="24.2" x2="59.3" y2="26.3"/>
	<line class="st0" x1="53.7" y1="26.3" x2="53.7" y2="24.2"/>
	<line class="st0" x1="72.1" y1="24.2" x2="72.1" y2="26.3"/>
	<line class="st0" x1="66.4" y1="26.3" x2="66.4" y2="24.2"/>
	<line class="st0" x1="84.9" y1="24.2" x2="84.9" y2="26.3"/>
	<line class="st0" x1="79.2" y1="26.3" x2="79.2" y2="24.2"/>
	<line class="st0" x1="97.6" y1="24.2" x2="97.6" y2="26.3"/>
	<line class="st0" x1="92" y1="26.3" x2="92" y2="24.2"/>
	<line class="st0" x1="110.4" y1="24.2" x2="110.4" y2="26.3"/>
	<line class="st0" x1="104.8" y1="26.3" x2="104.8" y2="24.2"/>
	<rect x="53.7" y="45.3" class="st0" width="5.6" height="5.6"/>
	<rect x="66.4" y="45.3" class="st0" width="5.6" height="5.6"/>
	<rect x="79.2" y="45.3" class="st0" width="5.6" height="5.6"/>
	<rect x="92" y="45.3" class="st0" width="5.6" height="5.6"/>
	<rect x="104.8" y="45.3" class="st0" width="5.6" height="5.6"/>
	<rect x="53.7" y="57.7" class="st0" width="5.6" height="5.6"/>
	<rect x="66.4" y="57.7" class="st0" width="5.6" height="5.6"/>
	<rect x="79.2" y="57.7" class="st0" width="5.6" height="5.6"/>
	<rect x="92" y="57.7" class="st0" width="5.6" height="5.6"/>
	<rect x="104.8" y="57.7" class="st0" width="5.6" height="5.6"/>
	<rect x="53.7" y="70.2" class="st0" width="5.6" height="5.6"/>
	<rect x="66.4" y="70.2" class="st0" width="5.6" height="5.6"/>
	<rect x="79.2" y="70.2" class="st0" width="5.6" height="5.6"/>
	<rect x="92" y="70.2" class="st0" width="5.6" height="5.6"/>
	<rect x="104.8" y="70.2" class="st0" width="5.6" height="5.6"/>
	<rect x="53.7" y="82.6" class="st0" width="5.6" height="5.6"/>
	<rect x="66.4" y="82.6" class="st0" width="5.6" height="5.6"/>
	<rect x="79.2" y="82.6" class="st0" width="5.6" height="5.6"/>
	<rect x="92" y="82.6" class="st0" width="5.6" height="5.6"/>
	<rect x="104.8" y="82.6" class="st0" width="5.6" height="5.6"/>
	<rect x="53.7" y="95" class="st0" width="5.6" height="5.6"/>
	<rect x="66.4" y="95" class="st0" width="5.6" height="5.6"/>
	<rect x="79.2" y="95" class="st0" width="5.6" height="5.6"/>
	<rect x="92" y="95" class="st0" width="5.6" height="5.6"/>
	<rect x="104.8" y="95" class="st0" width="5.6" height="5.6"/>
	<line class="st0" x1="104.8" y1="110" x2="47" y2="110"/>
	<line class="st0" x1="117.1" y1="110" x2="110.4" y2="110"/>
</svg>