<?xml version="1.0" encoding="utf-8"?>
<svg version="1.1" xmlns="http://www.w3.org/2000/svg" xmlns:xlink="http://www.w3.org/1999/xlink" x="0px" y="0px" width="123.6" height="101.6" viewBox="0 0 123.6 101.6" style="enable-background:new 0 0 123.6 101.6;" xml:space="preserve">
	<style type="text/css">
		.st0{fill:none;stroke:#fff;stroke-width:1.5;stroke-linecap:round;stroke-linejoin:round;stroke-miterlimit:10;}
	</style>
	<line class="st0" x1="79.9" y1="55.3" x2="79.9" y2="84.8"/>
	<path class="st0" d="M105.7,12.2H17.9c-2.2,0-4-1.8-4-4V4.8c0-2.2,1.8-4,4-4h87.8c2.2,0,4,1.8,4,4v3.3C109.8,10.4,108,12.2,105.7,12.2z"/>
	<line class="st0" x1="21.2" y1="12.2" x2="21.2" y2="18.9"/>
	<line class="st0" x1="102.4" y1="12.2" x2="102.4" y2="18.9"/>
	<rect x="6.8" y="51.1" class="st0" width="31.9" height="4.2"/>
	<rect x="43.7" y="51.1" class="st0" width="72.8" height="4.2"/>
	<polyline class="st0" points="122.9,37.1 122.9,100.9 0.8,100.9 0.8,37.1"/>
	<path class="st0" d="M45.2,38.2c0,3.1-2.5,5.6-5.6,5.6l0,0c-3.1,0-5.6-2.5-5.6-5.6"/>
	<path class="st0" d="M67.4,38.2c0,3.1-2.5,5.6-5.6,5.6l0,0c-3.1,0-5.6-2.5-5.6-5.6"/>
	<path class="st0" d="M89.6,38.2c0,3.1-2.5,5.6-5.6,5.6l0,0c-3.1,0-5.6-2.5-5.6-5.6"/>
	<path class="st0" d="M111.8,38.2c0,3.1-2.5,5.6-5.6,5.6l0,0c-3.1,0-5.6-2.5-5.6-5.6"/>
	<path class="st0" d="M122.9,33.2v5c0,3.1-2.5,5.6-5.6,5.6l0,0c-3.1,0-5.6-2.5-5.6-5.6v-5"/>
	<path class="st0" d="M78.5,33.2v5c0,3.1-2.5,5.6-5.6,5.6l0,0c-3.1,0-5.6-2.5-5.6-5.6v-5"/>
	<path class="st0" d="M100.7,33.2v5c0,3.1-2.5,5.6-5.6,5.6l0,0c-3.1,0-5.6-2.5-5.6-5.6v-5"/>
	<path class="st0" d="M34.1,33.2v5c0,3.1-2.5,5.6-5.6,5.6h0c-3.1,0-5.6-2.5-5.6-5.6v-5"/>
	<path class="st0" d="M11.9,33.2v5c0,3.1-2.5,5.6-5.6,5.6l0,0c-3.1,0-5.6-2.5-5.6-5.6v-5"/>
	<path class="st0" d="M56.3,33.2v5c0,3.1-2.5,5.6-5.6,5.6l0,0c-3.1,0-5.6-2.5-5.6-5.6v-5"/>
	<path class="st0" d="M23,38.2c0,3.1-2.5,5.6-5.6,5.6l0,0c-3.1,0-5.6-2.5-5.6-5.6"/>
	<polygon class="st0" points="11.3,18.9 112.3,18.9 122.9,33.2 0.8,33.2"/>
	<line class="st0" x1="11.9" y1="33.2" x2="20.1" y2="18.9"/>
	<line class="st0" x1="23" y1="33.2" x2="29.3" y2="18.9"/>
	<line class="st0" x1="34.1" y1="33.2" x2="38.6" y2="18.9"/>
	<line class="st0" x1="45.2" y1="33.2" x2="47.9" y2="18.9"/>
	<line class="st0" x1="56.3" y1="33.2" x2="57.2" y2="18.9"/>
	<line class="st0" x1="67.4" y1="33.2" x2="66.4" y2="18.9"/>
	<line class="st0" x1="78.5" y1="33.2" x2="75.7" y2="18.9"/>
	<line class="st0" x1="89.6" y1="33.2" x2="85" y2="18.9"/>
	<line class="st0" x1="100.7" y1="33.2" x2="94.3" y2="18.9"/>
	<line class="st0" x1="111.8" y1="33.2" x2="103.5" y2="18.9"/>
	<rect x="14.8" y="60.4" class="st0" width="16" height="22.7"/>
	<rect x="14.8" y="88" class="st0" width="16" height="7"/>
	<line class="st0" x1="45.6" y1="86.8" x2="37" y2="86.8"/>
	<line class="st0" x1="9.3" y1="86.8" x2="0.8" y2="86.8"/>
	<line class="st0" x1="122.9" y1="86.8" x2="114.3" y2="86.8"/>
	<line class="st0" x1="36.3" y1="55.3" x2="36.3" y2="100.9"/>
	<line class="st0" x1="9.3" y1="100.9" x2="9.3" y2="55.3"/>
	<polyline class="st0" points="114.3,55.3 114.3,91.6 45.6,91.6 45.6,55.3"/>
	<line class="st0" x1="114.3" y1="84.8" x2="45.6" y2="84.8"/>
	<line class="st0" x1="72.9" y1="63.4" x2="68.2" y2="68.1"/>
	<line class="st0" x1="69.3" y1="62.4" x2="67.4" y2="64.3"/>
	<line class="st0" x1="94.5" y1="67.7" x2="89.9" y2="72.3"/>
	<line class="st0" x1="95.8" y1="71.2" x2="94.1" y2="72.9"/>
	<line class="st0" x1="56.3" y1="71.2" x2="53" y2="74.5"/>
	<path class="st0" d="M109.9,84.8c-0.4-2.2-2.7-3.8-5.4-3.8c-0.5,0-1.1,0.1-1.6,0.2c-1-1-2.5-1.6-4.2-1.6c-2,0-3.7,0.9-4.7,2.2c-0.9-0.5-1.9-0.7-3-0.7c-2.7,0-5,1.7-5.4,3.8"/>
	<path class="st0" d="M67.4,82c-1-1.3-2.5-2.3-4.3-2.5c-2.1-0.2-4.1,0.7-5.3,2.2c-0.9-0.7-1.9-1.1-3.1-1.3c-2.9-0.3-5.6,1.6-6.3,4.3"/>
	<line class="st0" x1="85.4" y1="5.4" x2="24.7" y2="5.4"/>
	<line class="st0" x1="100.7" y1="5.4" x2="93.5" y2="5.4"/>
</svg>