<?xml version="1.0" encoding="utf-8"?>
<svg version="1.1" xmlns="http://www.w3.org/2000/svg" xmlns:xlink="http://www.w3.org/1999/xlink" x="0px" y="0px" viewBox="0 0 121.7 108.5" width="121.7" height="108.5" style="enable-background:new 0 0 121.7 108.5;" xml:space="preserve">
	<style type="text/css">
		.st0{fill:none;stroke:#a7abb4;stroke-width:1.5;stroke-linecap:round;stroke-linejoin:round;stroke-miterlimit:10;}
	</style>
	<line class="st0" x1="120.9" y1="107.8" x2="0.8" y2="107.8"/>
	<polyline class="st0" points="86.8,107.8 86.8,89.4 105.1,89.4 105.1,107.8"/>
	<line class="st0" x1="96" y1="89.4" x2="96" y2="107.8"/>
	<rect x="86.8" y="33.6" class="st0" width="6.1" height="6.1"/>
	<rect x="99" y="33.6" class="st0" width="6.1" height="6.1"/>
	<rect x="86.8" y="46.8" class="st0" width="6.1" height="6.1"/>
	<rect x="99" y="46.8" class="st0" width="6.1" height="6.1"/>
	<rect x="86.8" y="59.9" class="st0" width="6.1" height="6.1"/>
	<rect x="99" y="59.9" class="st0" width="6.1" height="6.1"/>
	<rect x="86.8" y="73.1" class="st0" width="6.1" height="6.1"/>
	<rect x="99" y="73.1" class="st0" width="6.1" height="6.1"/>
	<rect x="17" y="67" class="st0" width="5.8" height="11.6"/>
	<rect x="28.5" y="67" class="st0" width="5.8" height="11.6"/>
	<rect x="17" y="84.7" class="st0" width="5.8" height="11.6"/>
	<rect x="28.5" y="84.7" class="st0" width="5.8" height="11.6"/>
	<rect x="17" y="49.2" class="st0" width="5.8" height="11.6"/>
	<rect x="28.5" y="49.2" class="st0" width="5.8" height="11.6"/>
	<line class="st0" x1="64.8" y1="47.3" x2="47.4" y2="47.3"/>
	<line class="st0" x1="64.8" y1="57.3" x2="47.4" y2="57.3"/>
	<line class="st0" x1="64.8" y1="67.3" x2="47.4" y2="67.3"/>
	<line class="st0" x1="64.8" y1="77.3" x2="47.4" y2="77.3"/>
	<line class="st0" x1="64.8" y1="87.3" x2="47.4" y2="87.3"/>
	<line class="st0" x1="64.8" y1="97.3" x2="47.4" y2="97.3"/>
	<line class="st0" x1="72.8" y1="61.2" x2="79.2" y2="64.8"/>
	<polyline class="st0" points="9,107.8 9,39.6 55.4,17.7 55.4,36.8"/>
	<polyline class="st0" points="79.2,107.8 79.2,0.8 112.7,16.1 112.7,107.8"/>
	<line class="st0" x1="103.5" y1="19.3" x2="106.4" y2="20.6"/>
	<line class="st0" x1="85.7" y1="11.1" x2="99" y2="17.2"/>
	<polyline class="st0" points="39.4,107.8 39.4,36.8 72.8,36.8 72.8,107.8"/>
</svg>