<?xml version="1.0" encoding="utf-8"?>
<svg version="1.1" xmlns="http://www.w3.org/2000/svg" xmlns:xlink="http://www.w3.org/1999/xlink" x="0px" y="0px" viewBox="0 0 123.5 122.5" width="123.5" height="122.5" style="enable-background:new 0 0 123.5 122.5;" xml:space="preserve">
	<style type="text/css">
		.st0{fill:none;stroke:#fff;stroke-width:1.5;stroke-linecap:round;stroke-linejoin:round;stroke-miterlimit:10;}
	</style>
	<rect x="8.4" y="43.6" class="st0" width="19.7" height="5.5"/>
	<rect x="8.4" y="101.8" class="st0" width="19.7" height="5.5"/>
	<line class="st0" x1="24" y1="49.2" x2="24" y2="101.8"/>
	<line class="st0" x1="12.4" y1="101.8" x2="12.4" y2="49.2"/>
	<rect x="32.3" y="43.6" class="st0" width="19.7" height="5.5"/>
	<rect x="32.3" y="101.8" class="st0" width="19.7" height="5.5"/>
	<line class="st0" x1="47.9" y1="49.2" x2="47.9" y2="101.8"/>
	<line class="st0" x1="36.4" y1="101.8" x2="36.4" y2="49.2"/>
	<rect x="71.5" y="43.6" class="st0" width="19.7" height="5.5"/>
	<rect x="71.5" y="101.8" class="st0" width="19.7" height="5.5"/>
	<line class="st0" x1="87.1" y1="49.2" x2="87.1" y2="101.8"/>
	<line class="st0" x1="75.6" y1="101.8" x2="75.6" y2="49.2"/>
	<rect x="95.4" y="43.6" class="st0" width="19.7" height="5.5"/>
	<rect x="95.4" y="101.8" class="st0" width="19.7" height="5.5"/>
	<line class="st0" x1="111.1" y1="49.2" x2="111.1" y2="101.8"/>
	<line class="st0" x1="99.5" y1="101.8" x2="99.5" y2="49.2"/>
	<rect x="0.8" y="113.5" class="st0" width="122" height="8.2"/>
	<polyline class="st0" points="4.3,113.5 4.3,107.3 119.2,107.3 119.2,113.5"/>
	<path class="st0" d="M118.2,33.5v6c0,2.3-1.9,4.2-4.2,4.2H9.5c-2.3,0-4.2-1.9-4.2-4.2v-6"/>
	<rect x="3.4" y="28.6" class="st0" width="116.8" height="4.8"/>
	<line class="st0" x1="3.4" y1="28.6" x2="61.8" y2="0.8"/>
	<line class="st0" x1="120.1" y1="28.6" x2="61.8" y2="0.8"/>
	<circle class="st0" cx="61.8" cy="15.6" r="4.5"/>
</svg>