<?xml version="1.0" encoding="utf-8"?>
<svg version="1.1" xmlns="http://www.w3.org/2000/svg" xmlns:xlink="http://www.w3.org/1999/xlink" x="0px" y="0px" viewBox="0 0 119 121.3" width="119" height="121.3" style="enable-background:new 0 0 119 121.3;" xml:space="preserve">
	<style type="text/css">
		.st0{fill:none;stroke:#fff;stroke-width:1.5;stroke-linecap:round;stroke-linejoin:round;stroke-miterlimit:10;}
	</style>
	<polygon class="st0" points="0.8,92.4 0.8,120.6 40.1,120.6 40.1,92.4 32.2,57.6 32.1,57.6 35.4,47.9 35.4,43.4 5.5,43.4 5.5,47.9 8.8,57.6 8.7,57.6"/>
	<polyline class="st0" points="75.1,70.6 118.3,70.6 118.3,120.6 35.6,120.6"/>
	<line class="st0" x1="61.8" y1="70.6" x2="69.4" y2="70.6"/>
	<line class="st0" x1="35.6" y1="70.6" x2="52.6" y2="70.6"/>
	<polyline class="st0" points="45,70.1 45,59.1 77.4,52.2 77.4,43.5 111.3,34.8 111.3,70.1"/>
	<polyline class="st0" points="54,56.8 55.9,25.1 65.1,25.1 66.8,54.4"/>
	<rect x="97.9" y="48.9" class="st0" width="7" height="5.1"/>
	<rect x="86.2" y="48.9" class="st0" width="7" height="5.1"/>
	<rect x="97.9" y="58.8" class="st0" width="7" height="5.1"/>
	<rect x="86.2" y="58.8" class="st0" width="7" height="5.1"/>
	<rect x="74.6" y="58.8" class="st0" width="7" height="5.1"/>
	<rect x="98" y="80.7" class="st0" width="11.3" height="8.4"/>
	<rect x="98" y="94.5" class="st0" width="11.3" height="8.4"/>
	<rect x="81.4" y="80.7" class="st0" width="11.3" height="8.4"/>
	<rect x="81.4" y="94.5" class="st0" width="11.3" height="8.4"/>
	<rect x="64.9" y="80.7" class="st0" width="11.3" height="8.4"/>
	<rect x="64.9" y="94.5" class="st0" width="11.3" height="8.4"/>
	<rect x="48.3" y="80.7" class="st0" width="11.3" height="8.4"/>
	<rect x="48.3" y="94.5" class="st0" width="11.3" height="8.4"/>
	<line class="st0" x1="32.2" y1="57.6" x2="20.2" y2="57.6"/>
	<line class="st0" x1="13.8" y1="57.6" x2="9" y2="57.6"/>
	<line class="st0" x1="40.1" y1="92.4" x2="0.8" y2="92.4"/>
	<line class="st0" x1="40.1" y1="102.8" x2="0.8" y2="102.8"/>
	<line class="st0" x1="60.4" y1="33.1" x2="60.4" y2="34.8"/>
	<line class="st0" x1="60.4" y1="40.2" x2="60.4" y2="41.8"/>
	<line class="st0" x1="60.4" y1="47.3" x2="60.4" y2="48.9"/>
	<line class="st0" x1="102.7" y1="113.4" x2="40.1" y2="113.4"/>
	<line class="st0" x1="118" y1="113.4" x2="109.1" y2="113.4"/>
	<path class="st0" d="M43.2,25.3c3.4-1,4.6-4.7,4.6-6.9c0.3,0,0.6,0.1,0.9,0.1c1.3,0,2.5-0.4,3.4-1.1"/>
	<path class="st0" d="M28.2,38.8c0.3-2,1.8-4.2,6.7-4.3c0.4,0,0.8,0,1.2-0.1c2.4-0.5,4.4-2.4,4.9-4.8c0.2-1.1,0.1-3.1-1.1-4.3"/>
	<path class="st0" d="M17.2,2.4c-1-0.2-2-0.2-3-0.1C8.9,3.1,5.2,8,5.9,13.2c0.4,3.1,2.3,5.7,4.9,7.1c-2.1,2.4-3.1,5.5-2.7,8.9c0.3,2.3,1.6,4.9,3.8,6.6c2,1.6,2.3,3.6,2.3,3.6"/>
	<path class="st0" d="M98.2,0.9c1,2.6-0.4,5.5-3,6.4c-1.5,0.6-3.2,0.3-4.4-0.5c-0.6,1.5-1.8,2.8-3.4,3.4c-1.1,0.4-2.6,0.5-4-0.1"/>
	<path class="st0" d="M24.8,15.4c1.9-3.3,6.2-4.4,9.5-2.5"/>
	<path class="st0" d="M77.7,6.2c4.3,0.5,6.2-3.9,5.7-5.5"/>
	<path class="st0" d="M63.2,21.6c1.1-2.8,2.8-5.6,9.3-5.6c0.4,0,0.8,0,1.2-0.1c2.5-0.5,4.6-2.5,5.1-5.1c0.2-1.2,0.1-3.2-1.1-4.5"/>
	<path class="st0" d="M54,0.8c-0.4,2,1.1,4,2.7,4.4c-1.8,1.7-2.9,4.1-2.8,6.8c0.1,1.8,1,3.8,2.5,5.5c2,2.4,2,4,2,4"/>
	<path class="st0" d="M66.8,5.6c1.5-1.3,3.9-1.1,5.2,0.5"/>
</svg>