<?xml version="1.0" encoding="utf-8"?>
<svg version="1.1" xmlns="http://www.w3.org/2000/svg" xmlns:xlink="http://www.w3.org/1999/xlink" x="0px" y="0px" viewBox="0 0 122.4 105.5" width="122.4" height="105.5" style="enable-background:new 0 0 122.4 105.5;" xml:space="preserve">
	<style type="text/css">
		.st0{fill:none;stroke:#a7abb4;stroke-width:1.5;stroke-linecap:round;stroke-linejoin:round;stroke-miterlimit:10;}
		.st1{fill:none;stroke:#a7abb4;stroke-width:1.5;stroke-miterlimit:10;}
		.st2 {fill:#a7abb4;}
	</style>
	<polyline class="st0" points="45.6,15.1 45.6,21.4 33.6,21.4 33.6,15.1"/>
	<polyline class="st0" points="20.4,26.7 20.4,15.1 58.8,15.1 58.8,26.7"/>
	<polyline class="st0" points="50.4,14.7 50.4,3.7 74.1,3.7 74.1,26.7"/>
	<line class="st0" x1="21.3" y1="46.5" x2="73.2" y2="46.5"/>
	<line class="st0" x1="31" y1="60.2" x2="63.4" y2="60.2"/>
	<circle class="st2" cx="24.1" cy="95.6" r="1.4"/>
	<circle class="st1" cx="24.1" cy="95.6" r="9.1"/>
	<polyline class="st0" points="82.4,77.2 16.3,77.2 0.8,31 93.7,31 "/>
	<ellipse transform="matrix(0.999 -4.531456e-02 4.531456e-02 0.999 -4.2366 3.7078)" class="st1" cx="79.7" cy="95.3" rx="9.1" ry="9.1"/>
	<line class="st1" x1="32.7" y1="92.7" x2="71.3" y2="92.7"/>
	<line class="st1" x1="32.7" y1="98.5" x2="71.3" y2="98.5"/>
	<path class="st1" d="M86.1,89.1l20.1-82.6h12.6c1.6,0,2.8-1.3,2.8-2.8c0-1.6-1.3-2.8-2.8-2.8H101L80.2,86.6"/>
	<circle class="st2" cx="79.7" cy="95.3" r="1.4"/>
</svg>