<?xml version="1.0" encoding="utf-8"?>
<svg version="1.1" xmlns="http://www.w3.org/2000/svg" xmlns:xlink="http://www.w3.org/1999/xlink" x="0px" y="0px" viewBox="0 0 126 130.4" width="126" height="130.4" style="enable-background:new 0 0 126 130.4;" xml:space="preserve">
	<style type="text/css">
		.st0{fill:none;stroke:#a7abb4;stroke-width:1.5;stroke-linecap:round;stroke-linejoin:round;stroke-miterlimit:10;}
	</style>
	<path class="st0" d="M85.8,65H72.5c-5.1,0-9.6,3.3-11.1,8.2l-3.1,10.1c-0.4,1.2-0.9,2.3-1.6,3.3l-3.9,5.5c-2.2,3.2-3.4,7-3.4,10.9v11.2c0,3.9,3.2,7,7,7h29.3"/>
	<line class="st0" x1="63.4" y1="91" x2="107.6" y2="91"/>
	<path class="st0" d="M93,86.6c0-3.9,3.1-7,7-7s7,3.1,7,7"/>
	<line class="st0" x1="81.8" y1="69.9" x2="89.3" y2="69.9"/>
	<path class="st0" d="M85.7,69.9V65h13.2c5.1,0,9.6,3.3,11.1,8.2l3.1,10.1c0.4,1.2,0.9,2.3,1.6,3.3l3.9,5.5c2.2,3.2,3.4,7,3.4,10.9v11.2c0,3.9-3.2,7-7,7H85.7"/>
	<path class="st0" d="M49.6,100.2l10.9,1.2c3,0.3,5.2,2.8,5.2,5.8v1.9H49.6"/>
	<path class="st0" d="M121.5,100.2l-10.9,1.2c-3,0.3-5.2,2.8-5.2,5.8v1.9h16.1"/>
	<line class="st0" x1="100.4" y1="102.4" x2="98.1" y2="106.9"/>
	<line class="st0" x1="96.6" y1="102.4" x2="94.4" y2="106.9"/>
	<line class="st0" x1="92.9" y1="102.4" x2="90.7" y2="106.9"/>
	<line class="st0" x1="89.2" y1="102.4" x2="87" y2="106.9"/>
	<line class="st0" x1="85.5" y1="102.4" x2="83.2" y2="106.9"/>
	<line class="st0" x1="81.7" y1="102.4" x2="79.5" y2="106.9"/>
	<line class="st0" x1="78" y1="102.4" x2="75.8" y2="106.9"/>
	<line class="st0" x1="74.3" y1="102.4" x2="72.1" y2="106.9"/>
	<line class="st0" x1="110.7" y1="113.5" x2="117.1" y2="113.5"/>
	<line class="st0" x1="60.5" y1="113.5" x2="53.6" y2="113.5"/>
	<path class="st0" d="M58.3,83.3h-12V86c0,2.3,1.6,4.2,3.6,4.2h4.2"/>
	<path class="st0" d="M113.1,83.3h12.1V86c0,2.3-1.6,4.2-3.6,4.2h-4.2"/>
	<path class="st0" d="M54.7,129.6c-1.7,0-3.1-1.3-3.1-3v-7.4"/>
	<path class="st0" d="M62.6,121.2v5.4c0,1.7-1.4,3-3.1,3"/>
	<path class="st0" d="M117.1,129.6c1.7,0,3.1-1.3,3.1-3v-7.4"/>
	<path class="st0" d="M109.2,121.2v5.4c0,1.7,1.4,3,3.1,3"/>
	<polyline class="st0" points="97.3,121.2 97.3,113.5 73.8,113.5 73.8,121.2"/>
	<line class="st0" x1="56.7" y1="86.6" x2="114.7" y2="86.6"/>
	<line class="st0" x1="125.2" y1="129.6" x2="0.8" y2="129.6"/>
	<path class="st0" d="M82.6,34.2H72.3c-0.9,0-1.6-0.7-1.6-1.6l0,0c0-0.9,0.7-1.6,1.6-1.6h6.6"/>
	<line class="st0" x1="85.9" y1="37.8" x2="53.7" y2="37.8"/>
	<polygon class="st0" points="54.2,37.8 38.6,51.1 30.9,51.1 39.7,37.8"/>
	<polyline class="st0" points="50,27.5 42,20.4 34.6,20.4 39.3,27.5"/>
	<path class="st0" d="M37.8,40.6c0,0-13.3,0.1-20.1-3.7c-4-2.3-4.9-5-4.9-5"/>
	<polygon class="st0" points="19.4,27.5 9.9,27.5 4.4,12.7 9.3,12.7"/>
	<polyline class="st0" points="19.4,27.5 9.4,34.2 4.4,34.1 9.9,27.5"/>
	<path class="st0" d="M15.2,30.3c0,0,1.4,4.2,7.6,5.9c6.2,1.7,16.9,1.5,16.9,1.5"/>
	<path class="st0" d="M32.4,32.5c0,0.9,0.8,1.7,1.7,1.7c0.9,0,1.7-0.8,1.7-1.7c0-0.9-0.8-1.7-1.7-1.7C33.2,30.8,32.4,31.6,32.4,32.5z"/>
	<path class="st0" d="M39.2,32.5c0,0.9,0.8,1.7,1.7,1.7s1.7-0.8,1.7-1.7c0-0.9-0.8-1.7-1.7-1.7S39.2,31.6,39.2,32.5z"/>
	<path class="st0" d="M45.9,32.5c0,0.9,0.8,1.7,1.7,1.7s1.7-0.8,1.7-1.7c0-0.9-0.8-1.7-1.7-1.7S45.9,31.6,45.9,32.5z"/>
	<path class="st0" d="M52.7,32.5c0,0.9,0.8,1.7,1.7,1.7s1.7-0.8,1.7-1.7c0-0.9-0.8-1.7-1.7-1.7S52.7,31.6,52.7,32.5z"/>
	<path class="st0" d="M59.4,32.5c0,0.9,0.8,1.7,1.7,1.7s1.7-0.8,1.7-1.7c0-0.9-0.8-1.7-1.7-1.7S59.4,31.6,59.4,32.5z"/>
	<path class="st0" d="M50.8,40.7h33.1c1.6,0,2.7-2.1,1.8-3.5c-0.6-0.9-1.6-2-3.1-3c-4.5-3.1-3.4-3.8-5.6-4.6c-2.2-0.8-7-2.1-34.2-2.1c-27.2,0-23.2,0-23.2,0"/>
	<path class="st0" d="M72.6,8.2c0-4.1-3.3-7.5-7.5-7.5c-3.4,0-6.3,2.3-7.2,5.4c-0.8-0.6-1.8-1-2.9-1c-2.5,0-4.6,2-4.6,4.6h-2.1"/>
	<path class="st0" d="M83.1,15.7c0-2.3-1.9-4.2-4.2-4.2c-0.8,0-1.6,0.3-2.3,0.7c-0.9-2.5-3.3-4.2-6-4.2c-2.8,0-5.2,1.8-6.1,4.3c-0.7-0.5-1.5-0.8-2.4-0.8c-2.3,0-4.2,1.9-4.2,4.2c0,2.3,1.9,4.2,4.2,4.2h6.7"/>
	<path class="st0" d="M22.9,50.8c0-2-1.6-3.6-3.6-3.6c-0.7,0-1.4,0.2-1.9,0.6c-0.8-2.1-2.8-3.6-5.2-3.6c-2.4,0-4.4,1.5-5.2,3.7c-0.6-0.4-1.3-0.7-2.1-0.7c-2,0-3.6,1.6-3.6,3.6c0,2,1.6,3.6,3.6,3.6h5.7"/>
	<line class="st0" x1="13.8" y1="54.4" x2="16.5" y2="54.4"/>
</svg>